<svg id="Group_4" data-name="Group 4" xmlns="http://www.w3.org/2000/svg" width="3400" height="3400" viewBox="0 0 3400 3400">
  <rect id="Rectangle" width="3400" height="3400" fill="#0fbcf9"/>
  <g id="Group_2" data-name="Group 2" transform="translate(1286 1134)">
    <ellipse id="Oval" cx="180" cy="198" rx="180" ry="198" transform="translate(0 179)" fill="#fff"/>
    <ellipse id="Oval-2" data-name="Oval" cx="182.5" cy="198" rx="182.5" ry="198" transform="translate(180)" fill="#fff"/>
    <ellipse id="Oval-3" data-name="Oval" cx="141.5" cy="167" rx="141.5" ry="167" transform="translate(545 241)" fill="#fff"/>
    <ellipse id="Oval-4" data-name="Oval" cx="141.5" cy="154" rx="141.5" ry="154" transform="translate(457 98)" fill="#fff"/>
    <rect id="Rectangle-2" data-name="Rectangle" width="509" height="241" transform="translate(175 334)" fill="#fff"/>
  </g>
  <path id="App_In_The_Cloud" data-name="App In The Cloud" d="M218.56,318.721H183.04v-240h34.88v23.04h.64a56.056,56.056,0,0,1,5.2-11.161,48.241,48.241,0,0,1,7.28-9.159,26.566,26.566,0,0,1,10.16-6.12,46.549,46.549,0,0,1,25.88-.4,37.742,37.742,0,0,1,10.52,4.92,48.959,48.959,0,0,1,9,7.84,60.522,60.522,0,0,1,7.48,10.4A84.69,84.69,0,0,1,300,110.8a112.564,112.564,0,0,1,4.32,14.8,159.306,159.306,0,0,1,3.52,34.4,168.315,168.315,0,0,1-3.359,34.72,110.725,110.725,0,0,1-4.2,14.84A84.8,84.8,0,0,1,294.4,222.4a59.2,59.2,0,0,1-7.521,10.521,48.116,48.116,0,0,1-9.12,7.88,38.707,38.707,0,0,1-10.64,4.92,43.571,43.571,0,0,1-12.08,1.639A40.106,40.106,0,0,1,242.2,245.4a31.084,31.084,0,0,1-10.36-5.881,42.454,42.454,0,0,1-7.72-8.68,40.8,40.8,0,0,1-4.919-10.36h-.641v98.24ZM244.8,104.64a17.821,17.821,0,0,0-11.84,4.32,32.907,32.907,0,0,0-8.48,11.679,72.153,72.153,0,0,0-5.12,17.6,135.437,135.437,0,0,0,0,43.52,75,75,0,0,0,5.12,17.76,32.663,32.663,0,0,0,8.48,11.839,18.189,18.189,0,0,0,5.521,3.24,18.477,18.477,0,0,0,6.32,1.08,19.648,19.648,0,0,0,6.56-1.08,18.014,18.014,0,0,0,5.6-3.24,31.19,31.19,0,0,0,8.32-11.839,75.286,75.286,0,0,0,4.8-17.76,148.747,148.747,0,0,0,0-43.52,72.631,72.631,0,0,0-4.8-17.6,31.383,31.383,0,0,0-8.32-11.679,18,18,0,0,0-5.6-3.24A19.59,19.59,0,0,0,244.8,104.64ZM377.28,318.72H341.76v-240h34.88v23.04h.64a55.824,55.824,0,0,1,5.2-11.16,48.054,48.054,0,0,1,7.28-9.16,26.549,26.549,0,0,1,10.16-6.12,46.549,46.549,0,0,1,25.879-.4,37.777,37.777,0,0,1,10.52,4.92,49.1,49.1,0,0,1,9,7.84,60.564,60.564,0,0,1,7.48,10.4,84.819,84.819,0,0,1,5.92,12.719,112.86,112.86,0,0,1,4.32,14.8,159.343,159.343,0,0,1,3.52,34.4,168.3,168.3,0,0,1-3.36,34.72,110.462,110.462,0,0,1-4.2,14.84,84.764,84.764,0,0,1-5.88,12.839,59.3,59.3,0,0,1-7.52,10.521,48.151,48.151,0,0,1-9.12,7.88,38.694,38.694,0,0,1-10.64,4.92,43.6,43.6,0,0,1-12.081,1.639A40.118,40.118,0,0,1,400.92,245.4a31.059,31.059,0,0,1-10.36-5.881,42.446,42.446,0,0,1-7.72-8.68,40.921,40.921,0,0,1-4.92-10.36h-.64Zm26.24-214.08a17.819,17.819,0,0,0-11.84,4.32,32.933,32.933,0,0,0-8.48,11.679,72.051,72.051,0,0,0-5.12,17.6,135.379,135.379,0,0,0,0,43.52,75.057,75.057,0,0,0,5.12,17.76,32.666,32.666,0,0,0,8.48,11.839,18.25,18.25,0,0,0,5.521,3.24,18.462,18.462,0,0,0,6.32,1.08,19.631,19.631,0,0,0,6.559-1.08,17.994,17.994,0,0,0,5.6-3.24A31.165,31.165,0,0,0,424,199.52a75.491,75.491,0,0,0,4.8-17.76,148.747,148.747,0,0,0,0-43.52,72.494,72.494,0,0,0-4.8-17.6,31.4,31.4,0,0,0-8.32-11.679,18.037,18.037,0,0,0-5.6-3.24A19.573,19.573,0,0,0,403.52,104.64ZM1424.96,247.68a73.185,73.185,0,0,1-18.28-2.24,65.655,65.655,0,0,1-16.44-6.72,76.747,76.747,0,0,1-14.32-10.68A84.9,84.9,0,0,1,1364,213.92a111.121,111.121,0,0,1-9.52-17.32,143.2,143.2,0,0,1-7.12-20.28,164.411,164.411,0,0,1-4.441-22.8,210.281,210.281,0,0,1,0-49.8A166.667,166.667,0,0,1,1347.36,80.8a140.48,140.48,0,0,1,7.159-20.4,109.077,109.077,0,0,1,9.64-17.361A85.446,85.446,0,0,1,1376.2,28.96,76.133,76.133,0,0,1,1390.56,18.4a66.666,66.666,0,0,1,16.359-6.6,72.862,72.862,0,0,1,18.04-2.2,89.36,89.36,0,0,1,18.32,1.8,68.188,68.188,0,0,1,15.919,5.4,61.547,61.547,0,0,1,24,20.64l-22.08,26.88a52.336,52.336,0,0,0-7.041-8.26,40.383,40.383,0,0,0-8-5.9,36.8,36.8,0,0,0-8.961-3.54,40.928,40.928,0,0,0-9.92-1.18,34.889,34.889,0,0,0-10.8,1.64A31.629,31.629,0,0,0,1407.04,52a46.288,46.288,0,0,0-7.92,7.72,58.232,58.232,0,0,0-6.48,10.04,97.6,97.6,0,0,0-8.64,26.4,175.354,175.354,0,0,0-2.88,32.48A173.5,173.5,0,0,0,1384,160.8a97.616,97.616,0,0,0,8.64,26.4,56.857,56.857,0,0,0,6.52,10.04,45.987,45.987,0,0,0,8.04,7.719,32.377,32.377,0,0,0,9.561,4.92,38.4,38.4,0,0,0,21.52.2,30.544,30.544,0,0,0,8.92-4.32,52.005,52.005,0,0,0,13.6-14.079l22.079,25.92A70.819,70.819,0,0,1,1460,239.36a55.554,55.554,0,0,1-15.72,6.24A84.009,84.009,0,0,1,1424.96,247.68Zm518.4-.321a41.211,41.211,0,0,1-11.84-1.679,38.6,38.6,0,0,1-10.56-5.04,49.076,49.076,0,0,1-9.12-8.04,60.757,60.757,0,0,1-7.52-10.68,89.167,89.167,0,0,1-5.92-13.04,117.9,117.9,0,0,1-4.32-15.12,165.387,165.387,0,0,1-3.52-35.04,164.231,164.231,0,0,1,3.361-34.24,104.911,104.911,0,0,1,4.2-14.6A78.033,78.033,0,0,1,1904,97.44a59.072,59.072,0,0,1,7.48-10.121,48.872,48.872,0,0,1,9-7.64,37.933,37.933,0,0,1,10.6-4.8,45.637,45.637,0,0,1,12.281-1.6,39.437,39.437,0,0,1,12.4,1.88,32.594,32.594,0,0,1,10.32,5.64,39.851,39.851,0,0,1,7.84,8.439,38.781,38.781,0,0,1,4.961,10.281h.959V0h35.52V241.92h-34.88V218.559h-.64a49.253,49.253,0,0,1-4.76,11.2,44.578,44.578,0,0,1-7.24,9.28,27.034,27.034,0,0,1-10.36,6.24A44.065,44.065,0,0,1,1943.36,247.359ZM1953.6,104.64a19.548,19.548,0,0,0-6.56,1.08,18.045,18.045,0,0,0-5.6,3.24,31.186,31.186,0,0,0-8.32,11.84,75.474,75.474,0,0,0-4.8,17.6,140.687,140.687,0,0,0-1.6,21.919,138.458,138.458,0,0,0,1.6,21.6,75.462,75.462,0,0,0,4.8,17.6,31.182,31.182,0,0,0,8.32,11.839,18.045,18.045,0,0,0,5.6,3.24,20.463,20.463,0,0,0,13.12,0,18.041,18.041,0,0,0,5.6-3.24,32.673,32.673,0,0,0,8.48-11.839,75.048,75.048,0,0,0,5.12-17.6,126.173,126.173,0,0,0,1.759-21.6,128.2,128.2,0,0,0-1.759-21.919,75.055,75.055,0,0,0-5.12-17.6,31.752,31.752,0,0,0-8.64-11.84,19.178,19.178,0,0,0-5.64-3.24A18.719,18.719,0,0,0,1953.6,104.64ZM1779.2,247.359a48.588,48.588,0,0,1-12.12-1.4,29.984,29.984,0,0,1-9.48-4.2,36.883,36.883,0,0,1-7.241-6.519,39.373,39.373,0,0,1-5.4-8.36,70.33,70.33,0,0,1-6.08-21.281,185.8,185.8,0,0,1-1.6-24.48V78.72h36.16v102.4a119.652,119.652,0,0,0,.64,12.48,39.144,39.144,0,0,0,2.72,11.04,19.2,19.2,0,0,0,6.08,8c2.653,2.017,6.152,3.039,10.4,3.039a20.4,20.4,0,0,0,10.921-3,26.17,26.17,0,0,0,8.439-9,47.718,47.718,0,0,0,5.4-13.64,74.211,74.211,0,0,0,1.8-16.92V78.72H1856v163.2h-35.52V216h-.64a50.994,50.994,0,0,1-14.88,22.24,35.631,35.631,0,0,1-11.64,6.84A42.236,42.236,0,0,1,1779.2,247.359Zm-137.281,0a58.921,58.921,0,0,1-13.92-1.6,49.637,49.637,0,0,1-12.32-4.8,58.027,58.027,0,0,1-10.68-7.64,63.747,63.747,0,0,1-9-10.12,74.455,74.455,0,0,1-7.2-12.52,96.6,96.6,0,0,1-5.281-14.84,121.61,121.61,0,0,1-3.24-16.8,152,152,0,0,1-1.08-18.4,156.388,156.388,0,0,1,1.08-18.68,124,124,0,0,1,3.24-17,101.481,101.481,0,0,1,5.24-15,77.567,77.567,0,0,1,7.08-12.68,59.237,59.237,0,0,1,8.92-10.2,54.2,54.2,0,0,1,10.76-7.56,51.561,51.561,0,0,1,12.44-4.681,63.074,63.074,0,0,1,27.88,0,50.223,50.223,0,0,1,12.32,4.681,55.173,55.173,0,0,1,10.68,7.56,62.014,62.014,0,0,1,9,10.2,76.107,76.107,0,0,1,7.2,12.68,98.441,98.441,0,0,1,5.28,15,123.427,123.427,0,0,1,3.24,17,155.939,155.939,0,0,1,1.08,18.68,151.553,151.553,0,0,1-1.08,18.4,121.352,121.352,0,0,1-3.24,16.8,96.466,96.466,0,0,1-5.28,14.84,74.466,74.466,0,0,1-7.2,12.52,63.724,63.724,0,0,1-9,10.12,58,58,0,0,1-10.68,7.64,49.567,49.567,0,0,1-12.32,4.8A58.925,58.925,0,0,1,1641.92,247.359Zm0-142.719a19.2,19.2,0,0,0-6.521,1.08,17.206,17.206,0,0,0-5.48,3.24,32.115,32.115,0,0,0-8.159,11.84,75.477,75.477,0,0,0-4.8,17.6,149.821,149.821,0,0,0,0,43.68,72.7,72.7,0,0,0,4.8,17.6,32.33,32.33,0,0,0,8.159,11.679,17.181,17.181,0,0,0,5.48,3.24,19.216,19.216,0,0,0,6.521,1.08,19.566,19.566,0,0,0,6.56-1.08,18.056,18.056,0,0,0,5.6-3.24,31.38,31.38,0,0,0,8.32-11.679,72.621,72.621,0,0,0,4.8-17.6,149.832,149.832,0,0,0,0-43.68,70.4,70.4,0,0,0-4.96-17.6,33.684,33.684,0,0,0-8.319-11.84,17.2,17.2,0,0,0-5.48-3.24A19.2,19.2,0,0,0,1641.921,104.64ZM1197.76,247.359a63.788,63.788,0,0,1-13.539-1.4,52.614,52.614,0,0,1-22.88-11.2,62.732,62.732,0,0,1-9.34-9.8,68.352,68.352,0,0,1-7.56-12.42,87.854,87.854,0,0,1-5.4-14.859,121.307,121.307,0,0,1-3.24-17.3,171.688,171.688,0,0,1-1.08-19.741,151.09,151.09,0,0,1,1.12-18.68,119.67,119.67,0,0,1,3.361-17,98.66,98.66,0,0,1,5.439-15A76.663,76.663,0,0,1,1152,97.28a65.142,65.142,0,0,1,9.08-10.2,56.417,56.417,0,0,1,10.6-7.56,49.61,49.61,0,0,1,12.039-4.681,56.307,56.307,0,0,1,13.4-1.56,62.479,62.479,0,0,1,14.521,1.6,45.3,45.3,0,0,1,12.2,4.8,51,51,0,0,1,10,7.56,52.57,52.57,0,0,1,7.92,9.88,71.651,71.651,0,0,1,5.961,12.04,92.435,92.435,0,0,1,4.119,14.04,157.435,157.435,0,0,1,3.2,32.64V169.6h-84.8a82.062,82.062,0,0,0,1.92,18.08,51.22,51.22,0,0,0,5.6,14.72,31.254,31.254,0,0,0,8.961,9.92,21.115,21.115,0,0,0,12.32,3.68,23.713,23.713,0,0,0,8.92-1.6,19.088,19.088,0,0,0,6.92-4.8,50.6,50.6,0,0,0,9.439-14.72l26.561,15.36a72.065,72.065,0,0,1-8.52,15.24,60.566,60.566,0,0,1-11.481,11.8,45.461,45.461,0,0,1-14.76,7.56A63.159,63.159,0,0,1,1197.76,247.359ZM1196.8,102.4a19.911,19.911,0,0,0-6.52,1.039,17.363,17.363,0,0,0-5.481,3.12,31.342,31.342,0,0,0-8,10.4,65.189,65.189,0,0,0-6.24,26.4h49.92a87.167,87.167,0,0,0-1.44-16.52,50.158,50.158,0,0,0-4.32-13.08,21.067,21.067,0,0,0-7.36-8.52A19.371,19.371,0,0,0,1196.8,102.4ZM160.643,241.922h0l-40,0-11.2-48H49.92l-11.52,48H0L56.32,15.36h48.96L160.64,241.92ZM79.36,51.519,54.72,163.839h49.92l-24-112.32Zm1022.72,190.4h-36.16V139.52a120.66,120.66,0,0,0-.64-12.32,41.5,41.5,0,0,0-2.72-11.36,19.029,19.029,0,0,0-6.079-8.16c-2.654-2.017-6.153-3.039-10.4-3.039a20.193,20.193,0,0,0-10.92,3.04,26.37,26.37,0,0,0-8.44,9.12,48.844,48.844,0,0,0-5.4,13.76,74.755,74.755,0,0,0-1.8,16.959v94.4H983.36V0h36.16V104h.64a49.683,49.683,0,0,1,5.64-11.641,52.354,52.354,0,0,1,8.6-9.959,34.03,34.03,0,0,1,11.4-6.84,41.565,41.565,0,0,1,14.04-2.281,49.084,49.084,0,0,1,12.16,1.4,30.939,30.939,0,0,1,9.6,4.2,36.849,36.849,0,0,1,7.36,6.521,38.489,38.489,0,0,1,5.439,8.36,70.325,70.325,0,0,1,6.081,21.279,186.239,186.239,0,0,1,1.6,24.48v102.4Zm-335.36,0H730.56V139.52a120.537,120.537,0,0,0-.64-12.32,41.514,41.514,0,0,0-2.72-11.36,19.036,19.036,0,0,0-6.081-8.16c-2.653-2.017-6.151-3.039-10.4-3.039a20.212,20.212,0,0,0-10.92,3.04,26.359,26.359,0,0,0-8.439,9.12,48.828,48.828,0,0,0-5.4,13.76,74.742,74.742,0,0,0-1.8,16.959v94.4H648V78.72h35.52v25.92h.64A51,51,0,0,1,699.04,82.4a35.64,35.64,0,0,1,11.64-6.84A42.3,42.3,0,0,1,724.8,73.28a48.627,48.627,0,0,1,12.121,1.4,29.943,29.943,0,0,1,9.48,4.2A36.807,36.807,0,0,1,753.64,85.4a39.25,39.25,0,0,1,5.4,8.36,70.351,70.351,0,0,1,6.08,21.279,185.418,185.418,0,0,1,1.6,24.48v102.4Zm778.56,0H1508.8V0h36.48Zm-623.68,0H883.84V48H841.28V15.36H964.16V48H921.6Zm-319.04,0h-38.4V15.36h38.4Z" transform="translate(678.64 1908.08)" fill="#fff"/>
</svg>
